<?xml version="1.0" standalone="no"?>
<!DOCTYPE svg PUBLIC "-//W3C//DTD SVG 20010904//EN"
 "http://www.w3.org/TR/2001/REC-SVG-20010904/DTD/svg10.dtd">
<svg version="1.0" xmlns="http://www.w3.org/2000/svg"
 width="1327.000000pt" height="417.000000pt" viewBox="0 0 1327.000000 417.000000"
 preserveAspectRatio="xMidYMid meet">

<g transform="translate(0.000000,417.000000) scale(0.100000,-0.100000)"
fill="#000000" stroke="none">
<path d="M980 4129 c-291 -8 -736 -28 -855 -37 l-80 -7 -5 -495 c-3 -272 -5
-496 -5 -497 1 -1 146 45 324 102 316 103 541 166 711 201 47 9 89 20 94 24 6
6 106 674 106 713 0 4 -8 6 -17 5 -10 0 -133 -5 -273 -9z"/>
<path d="M8218 3554 c-5 -4 -8 -374 -8 -822 l0 -814 233 4 c197 4 244 8 312
27 159 43 279 114 390 233 107 114 170 233 202 381 22 103 13 307 -17 402 -90
281 -305 489 -585 565 -67 19 -116 23 -300 27 -121 3 -223 2 -227 -3z m503
-406 c80 -38 134 -81 184 -149 64 -87 89 -173 83 -292 -4 -104 -32 -178 -93
-253 -62 -76 -208 -154 -287 -154 l-28 0 0 441 0 442 44 -5 c24 -3 67 -17 97
-30z"/>
<path d="M4780 3365 l0 -185 155 0 155 0 0 -630 0 -630 185 0 185 0 0 630 0
630 155 0 155 0 0 185 0 185 -495 0 -495 0 0 -185z"/>
<path d="M7290 2735 l0 -815 185 0 185 0 0 815 0 815 -185 0 -185 0 0 -815z"/>
<path d="M9891 3528 c-25 -69 -541 -1596 -541 -1601 0 -4 87 -7 193 -7 l193 0
33 100 32 100 259 0 259 0 32 -100 33 -100 194 0 193 0 -7 23 c-3 12 -116 364
-251 782 -134 418 -248 775 -254 793 l-11 32 -174 0 c-172 0 -175 0 -183 -22z
m244 -831 c31 -98 59 -185 62 -193 4 -12 -18 -14 -132 -14 -75 0 -135 4 -133
8 2 4 32 94 68 200 36 105 68 188 71 184 4 -4 32 -87 64 -185z"/>
<path d="M10822 3368 l3 -183 153 -3 152 -3 0 -629 0 -630 185 0 185 0 0 630
0 630 155 0 155 0 0 185 0 185 -495 0 -495 0 2 -182z"/>
<path d="M11980 3013 c0 -430 3 -552 15 -606 67 -318 383 -531 703 -473 228
41 412 205 488 436 17 50 19 108 22 618 l3 562 -185 0 -186 0 0 -518 c0 -561
-1 -576 -54 -644 -28 -38 -102 -82 -153 -93 -50 -10 -138 12 -186 48 -25 19
-53 54 -69 86 l-28 55 0 533 0 533 -185 0 -185 0 0 -537z"/>
<path d="M5940 2730 l0 -810 185 0 185 0 2 208 3 207 60 0 59 0 129 -207 129
-208 214 0 c118 0 214 2 214 6 0 3 -79 133 -176 290 l-176 285 60 64 c70 75
116 162 137 260 41 193 -12 362 -160 511 -67 68 -98 90 -176 128 -137 67 -192
76 -461 76 l-228 0 0 -810z m476 423 c120 -40 194 -122 194 -215 0 -43 -35
-112 -73 -144 -43 -37 -124 -73 -180 -80 l-47 -7 0 232 0 231 28 0 c16 0 51
-7 78 -17z"/>
<path d="M775 2167 c-317 -163 -675 -372 -675 -395 0 -4 11 -50 24 -102 62
-247 220 -555 402 -779 76 -95 240 -268 246 -261 2 3 55 365 117 805 62 440
115 810 118 823 3 12 1 22 -3 22 -5 0 -108 -51 -229 -113z"/>
<path d="M7375 1344 c-90 -23 -142 -60 -178 -128 -30 -58 -30 -174 0 -232 49
-94 145 -143 258 -131 132 14 214 107 215 245 0 102 -45 183 -122 220 -45 20
-137 34 -173 26z m134 -102 c80 -59 98 -172 41 -252 -22 -31 -85 -60 -131 -60
-78 0 -147 65 -157 145 -5 51 17 122 48 150 50 45 149 54 199 17z"/>
<path d="M11023 1320 c-59 -26 -85 -71 -80 -135 5 -60 34 -87 127 -124 34 -14
69 -35 77 -48 14 -21 14 -25 0 -47 -25 -38 -101 -41 -164 -8 -32 18 -34 16
-31 -30 4 -53 28 -68 116 -68 116 0 172 47 172 144 0 42 -4 53 -34 80 -18 17
-55 39 -82 50 -73 28 -94 44 -94 70 0 12 8 30 18 39 23 21 97 22 134 3 24 -13
28 -13 32 2 2 9 7 27 11 40 5 19 1 25 -29 37 -48 20 -123 18 -173 -5z"/>
<path d="M4766 1308 c-12 -45 -9 -47 67 -50 l72 -3 3 -197 2 -198 45 0 45 0 0
200 0 200 70 0 70 0 0 35 0 35 -184 0 c-182 0 -184 0 -190 -22z"/>
<path d="M5290 1095 l0 -235 160 0 c88 0 160 4 160 9 0 4 -5 22 -11 40 l-11
31 -104 0 -104 0 0 65 0 65 80 0 c57 0 80 4 80 13 0 6 3 22 6 35 6 22 5 22
-80 22 l-86 0 0 60 0 60 100 0 c99 0 101 0 110 26 6 14 10 30 10 35 0 5 -66 9
-155 9 l-155 0 0 -235z"/>
<path d="M5770 1095 l0 -235 139 0 c131 0 140 1 145 20 19 65 28 59 -91 62
l-108 3 -3 193 -2 192 -40 0 -40 0 0 -235z"/>
<path d="M6220 1095 l0 -235 161 0 161 0 -7 33 c-4 17 -9 35 -12 40 -2 4 -51
7 -109 7 l-104 0 0 65 0 65 79 0 c73 0 79 2 85 23 12 46 10 47 -79 47 l-85 0
0 60 0 60 105 0 c77 0 105 3 105 13 0 6 3 22 6 35 l6 22 -156 0 -156 0 0 -235z"/>
<path d="M6700 1095 l0 -235 45 0 44 0 3 110 3 109 88 -109 87 -110 56 0 56 0
-88 108 c-48 59 -93 114 -100 123 -12 13 -5 26 47 90 34 40 74 91 91 112 l30
37 -54 0 -53 -1 -80 -100 -80 -101 -3 101 -3 101 -44 0 -45 0 0 -235z"/>
<path d="M7840 1095 l0 -235 40 0 40 0 0 186 c0 124 3 183 10 179 6 -4 31 -47
55 -96 42 -82 47 -89 75 -89 28 0 33 7 77 95 26 52 51 95 55 95 5 0 8 -83 8
-185 l0 -185 40 0 40 0 0 235 0 235 -59 0 -59 0 -48 -85 c-26 -46 -51 -82 -55
-80 -4 3 -28 41 -53 85 l-47 80 -59 0 -60 0 0 -235z"/>
<path d="M8472 1148 c3 -162 5 -187 23 -218 31 -52 78 -75 155 -75 83 0 126
24 158 85 20 41 22 58 22 217 l0 173 -45 0 -45 0 0 -165 c0 -99 -4 -174 -11
-188 -28 -61 -130 -61 -158 0 -7 14 -11 89 -11 188 l0 165 -46 0 -46 0 4 -182z"/>
<path d="M9020 1095 l0 -235 45 0 45 0 0 182 0 183 88 -182 87 -182 58 -1 57
0 0 235 0 235 -40 0 -40 0 0 -165 c0 -91 -3 -165 -7 -165 -5 0 -44 74 -87 165
l-79 165 -63 0 -64 0 0 -235z"/>
<path d="M9600 1095 l0 -235 40 0 40 0 0 235 0 235 -40 0 -40 0 0 -235z"/>
<path d="M9880 1095 l0 -235 45 0 44 0 3 111 3 111 88 -111 89 -111 55 0 c53
0 55 1 41 18 -8 9 -54 64 -101 122 l-85 106 85 104 c47 58 87 108 89 113 3 4
-19 7 -48 7 l-53 -1 -80 -102 -80 -101 -3 102 -3 102 -44 0 -45 0 0 -235z"/>
<path d="M10525 1318 c-3 -7 -38 -113 -79 -235 l-74 -223 43 0 44 0 16 55 16
55 94 0 94 0 16 -55 16 -55 45 0 c24 0 44 3 44 7 0 5 -34 110 -76 235 l-76
228 -59 0 c-39 0 -61 -4 -64 -12z m99 -179 c14 -48 26 -90 26 -93 0 -3 -29 -6
-65 -6 -36 0 -65 3 -65 7 0 25 64 193 70 186 4 -4 20 -47 34 -94z"/>
<path d="M11410 1095 l0 -235 45 0 45 0 0 235 0 235 -45 0 -45 0 0 -235z"/>
</g>
</svg>
