<?xml version="1.0" encoding="UTF-8"?>
<!DOCTYPE svg PUBLIC "-//W3C//DTD SVG 1.1//EN" "http://www.w3.org/Graphics/SVG/1.1/DTD/svg11.dtd">
<!-- Creator: CorelDRAW X7 -->
<svg xmlns="http://www.w3.org/2000/svg" xml:space="preserve" width="121.614mm" height="34.5196mm" version="1.1" style="shape-rendering:geometricPrecision; text-rendering:geometricPrecision; image-rendering:optimizeQuality; fill-rule:evenodd; clip-rule:evenodd"
viewBox="0 0 5835 1656"
 xmlns:xlink="http://www.w3.org/1999/xlink">
 <defs>
  <style type="text/css">
   <![CDATA[
    .fil1 {fill:#5F5D5D;fill-rule:nonzero}
    .fil0 {fill:url(#id0)}
   ]]>
  </style>
  <linearGradient id="id0" gradientUnits="userSpaceOnUse" x1="0.470191" y1="710.64" x2="1550.97" y2="945.563">
   <stop offset="0" style="stop-opacity:1; stop-color:#3277ED"/>
   <stop offset="0.509804" style="stop-opacity:1; stop-color:#5695F6"/>
   <stop offset="1" style="stop-opacity:1; stop-color:#7AB4FF"/>
  </linearGradient>
 </defs>
 <g id="Layer_x0020_1">
  <metadata id="CorelCorpID_0Corel-Layer"/>
  <path class="fil0" d="M920 236c91,-2 290,-21 371,-1 4,9 -4,22 -9,34l-75 173c-22,51 -15,45 -47,51 -43,8 -298,72 -314,85 -9,11 -9,36 -11,53 -13,117 -39,312 94,363 68,26 167,16 240,3 127,-24 260,-113 340,-202 10,-11 21,-24 31,-37 15,-18 10,-26 10,-58 0,-74 4,-648 -1,-678 -31,-6 -104,-7 -139,-8 -67,-4 -381,-18 -426,-13 -9,18 -60,208 -64,235zm-919 -213l-1 407 241 -78c42,-13 84,-23 126,-35 26,-7 114,-21 129,-31 0,-1 71,-268 74,-285 -61,-2 -492,11 -569,22zm24 939c6,18 11,46 17,67 22,70 44,113 78,177 35,67 101,146 146,192 101,102 244,197 429,244 63,16 82,20 146,4 136,-33 231,-80 343,-161 69,-50 113,-97 170,-167 35,-42 111,-161 125,-214l-142 91c-160,89 -375,141 -564,127 -137,-10 -228,-97 -272,-190 -61,-130 -61,-235 -65,-395 -29,6 -179,86 -215,106 -43,23 -163,90 -196,119z"/>
  <polygon class="fil1" points="2331,423 2331,601 2184,601 2184,1199 2008,1199 2008,601 1862,601 1862,423 "/>
  <path id="1" class="fil1" d="M2638 999c-9,2 -19,3 -28,3 -9,1 -18,2 -28,2l0 195 -176 0 0 -770 176 0c44,1 85,9 123,24 39,16 72,36 101,62 29,26 51,56 68,91 16,34 24,71 24,110 0,42 -8,80 -26,116 -17,35 -41,66 -73,92l169 275 -207 0 -123 -200zm-56 -174c19,0 37,-4 54,-10 17,-6 32,-14 45,-23 13,-10 23,-22 30,-35 7,-13 11,-27 11,-41 0,-15 -4,-29 -11,-41 -7,-13 -17,-24 -30,-34 -13,-10 -28,-18 -45,-24 -17,-6 -35,-9 -54,-10l0 218z"/>
  <polygon id="2" class="fil1" points="3222,1199 3045,1199 3045,425 3222,425 "/>
  <path id="3" class="fil1" d="M3655 423c51,2 99,15 144,37 45,21 84,50 117,85 33,35 59,76 78,122 19,47 29,96 29,149 0,52 -10,100 -29,146 -18,45 -44,85 -77,119 -33,35 -72,62 -117,83 -44,21 -92,33 -145,35l-176 0 0 -777 176 0 0 1zm0 597c28,-3 53,-10 76,-21 23,-12 44,-27 61,-45 17,-18 30,-38 40,-62 9,-24 14,-50 14,-76 0,-28 -5,-54 -14,-79 -10,-25 -24,-47 -41,-66 -17,-19 -37,-35 -60,-48 -23,-12 -48,-19 -76,-22l0 419z"/>
  <path id="4" class="fil1" d="M4501 1199l-30 -93 -241 0 -31 93 -187 0 261 -773 167 0 247 773 -186 0zm-210 -272l124 0 -61 -187 -63 187z"/>
  <polygon id="5" class="fil1" points="5178,423 5178,601 5031,601 5031,1199 4855,1199 4855,601 4709,601 4709,423 "/>
  <path id="6" class="fil1" d="M5544 1199c-39,0 -76,-7 -110,-21 -35,-15 -66,-35 -93,-62 -28,-28 -49,-60 -64,-95 -15,-35 -23,-72 -24,-112l0 -484 177 0 0 482c0,31 11,58 34,82 23,21 50,32 81,32 16,0 30,-3 44,-9 14,-7 26,-15 37,-26 10,-10 18,-22 24,-36 5,-14 8,-30 8,-46l0 -479 176 0 0 478c1,40 -6,78 -21,114 -15,36 -36,67 -62,94 -26,27 -56,48 -91,64 -36,15 -73,24 -113,24l-3 0z"/>
 </g>
</svg>
